<?xml version="1.0" encoding="UTF-8"?>
<svg id="Layer_1" data-name="Layer 1" xmlns="http://www.w3.org/2000/svg" viewBox="0 0 2000 2000">
  <defs>
    <style>
      .cls-1 {
        fill: #fff;
      }
    </style>
  </defs>
  <g>
    <path class="cls-1" d="M808.04,1522.59c5.18,0,9.35,1.81,12.52,5.42,3.16,3.61,4.75,9.05,4.75,16.32,0,4.76-.72,8.78-2.16,12.05-1.44,3.27-3.45,5.73-6.05,7.38-2.59,1.65-5.64,2.47-9.14,2.47-2.15,0-4.06-.29-5.73-.86-1.68-.58-3.1-1.32-4.28-2.24-1.18-.92-2.19-1.92-3.02-3.02h-.47c.1.89.21,2.02.31,3.37.11,1.36.16,2.54.16,3.53v17.26h-6.91v-60.9h5.65l.94,5.73h.32c.83-1.21,1.84-2.3,3.02-3.3,1.18-.99,2.59-1.78,4.24-2.36,1.65-.57,3.59-.86,5.84-.86ZM806.79,1528.4c-2.82,0-5.1.54-6.83,1.61-1.73,1.07-2.98,2.68-3.77,4.82-.78,2.15-1.21,4.87-1.26,8.16v1.33c0,3.45.37,6.39,1.1,8.79s1.97,4.24,3.73,5.5c1.75,1.25,4.14,1.88,7.18,1.88,2.56,0,4.67-.71,6.32-2.12,1.65-1.41,2.88-3.33,3.69-5.77.81-2.43,1.22-5.22,1.22-8.36,0-4.81-.93-8.66-2.79-11.53-1.85-2.88-4.72-4.32-8.59-4.32Z"/>
    <path class="cls-1" d="M872.87,1544.33c0,3.51-.46,6.61-1.37,9.3-.92,2.7-2.22,4.98-3.92,6.87s-3.77,3.31-6.2,4.28c-2.43.97-5.14,1.45-8.12,1.45-2.77,0-5.33-.49-7.69-1.45-2.35-.97-4.4-2.4-6.12-4.28-1.73-1.88-3.07-4.17-4.04-6.87-.97-2.7-1.45-5.8-1.45-9.3,0-4.66.78-8.59,2.36-11.81,1.57-3.22,3.82-5.68,6.75-7.38,2.93-1.7,6.41-2.55,10.44-2.55,3.82,0,7.18.85,10.09,2.55,2.9,1.7,5.18,4.16,6.83,7.38,1.65,3.22,2.47,7.15,2.47,11.81ZM841.08,1544.33c0,3.29.43,6.16,1.29,8.59.86,2.43,2.21,4.3,4.04,5.61,1.83,1.3,4.16,1.96,6.98,1.96s5.15-.66,6.98-1.96c1.83-1.31,3.18-3.18,4.04-5.61.86-2.43,1.29-5.3,1.29-8.59s-.44-6.2-1.33-8.55c-.89-2.35-2.24-4.17-4.04-5.46-1.81-1.28-4.15-1.92-7.02-1.92-4.29,0-7.4,1.41-9.34,4.24-1.94,2.82-2.9,6.72-2.9,11.69Z"/>
    <path class="cls-1" d="M909.36,1541.66c-.31-1.1-.63-2.18-.94-3.26s-.59-2.09-.82-3.06c-.23-.97-.46-1.87-.67-2.71-.21-.83-.37-1.54-.47-2.12h-.32c-.11.58-.25,1.28-.43,2.12-.18.84-.39,1.76-.63,2.75-.24.99-.5,2.03-.78,3.1-.29,1.07-.62,2.15-.98,3.26l-7.54,23.62h-7.85l-11.53-42.06h7.14l5.81,22.44c.42,1.52.81,3.05,1.18,4.59.37,1.55.7,3.01.98,4.4.29,1.39.48,2.58.59,3.57h.31c.16-.63.34-1.41.55-2.35.21-.94.43-1.94.67-2.99.24-1.04.5-2.09.78-3.14.29-1.05.56-1.99.83-2.83l7.45-23.7h7.54l7.22,23.7c.37,1.21.75,2.48,1.14,3.84.39,1.36.74,2.68,1.06,3.96.31,1.28.52,2.42.63,3.41h.31c.11-.89.3-2,.59-3.33.29-1.33.63-2.8,1.02-4.4.39-1.59.8-3.18,1.22-4.75l5.88-22.44h7.06l-11.69,42.06h-8.09l-7.22-23.7Z"/>
    <path class="cls-1" d="M960.13,1522.59c3.61,0,6.71.78,9.3,2.36s4.58,3.78,5.96,6.63c1.38,2.85,2.08,6.19,2.08,10v4.16h-28.8c.1,4.76,1.32,8.39,3.65,10.87s5.58,3.73,9.77,3.73c2.67,0,5.03-.25,7.1-.75s4.2-1.22,6.4-2.16v6.04c-2.14.94-4.26,1.63-6.36,2.08-2.09.44-4.58.67-7.46.67-3.98,0-7.49-.81-10.55-2.43-3.06-1.62-5.44-4.05-7.14-7.26-1.7-3.22-2.55-7.15-2.55-11.81s.77-8.56,2.32-11.85c1.54-3.29,3.71-5.83,6.51-7.61,2.8-1.78,6.05-2.67,9.77-2.67ZM960.05,1528.25c-3.29,0-5.9,1.06-7.81,3.18-1.91,2.12-3.05,5.06-3.41,8.83h21.43c0-2.41-.37-4.5-1.1-6.28-.73-1.78-1.84-3.18-3.33-4.2-1.49-1.02-3.41-1.53-5.77-1.53Z"/>
    <path class="cls-1" d="M1007.77,1522.59c.79,0,1.63.04,2.55.12s1.71.2,2.4.36l-.86,6.35c-.68-.15-1.43-.28-2.24-.39s-1.58-.16-2.32-.16c-1.62,0-3.17.34-4.63,1.02-1.47.68-2.77,1.63-3.92,2.86-1.15,1.23-2.05,2.7-2.71,4.43-.65,1.73-.98,3.66-.98,5.81v22.44h-6.91v-42.07h5.65l.78,7.69h.31c.89-1.57,1.96-2.99,3.22-4.28,1.26-1.28,2.69-2.3,4.32-3.06,1.62-.76,3.4-1.14,5.33-1.14Z"/>
    <path class="cls-1" d="M1035.23,1522.59c3.61,0,6.71.78,9.3,2.36s4.58,3.78,5.96,6.63c1.38,2.85,2.08,6.19,2.08,10v4.16h-28.8c.1,4.76,1.32,8.39,3.65,10.87s5.58,3.73,9.77,3.73c2.67,0,5.03-.25,7.1-.75s4.2-1.22,6.4-2.16v6.04c-2.14.94-4.26,1.63-6.36,2.08-2.09.44-4.58.67-7.46.67-3.98,0-7.49-.81-10.55-2.43s-5.44-4.05-7.14-7.26c-1.7-3.22-2.55-7.15-2.55-11.81s.77-8.56,2.32-11.85c1.54-3.29,3.71-5.83,6.51-7.61,2.8-1.78,6.05-2.67,9.77-2.67ZM1035.15,1528.25c-3.29,0-5.9,1.06-7.81,3.18-1.91,2.12-3.05,5.06-3.41,8.83h21.43c0-2.41-.37-4.5-1.1-6.28-.73-1.78-1.84-3.18-3.33-4.2-1.49-1.02-3.41-1.53-5.77-1.53Z"/>
    <path class="cls-1" d="M1078.16,1566.23c-5.23,0-9.42-1.82-12.56-5.46-3.14-3.63-4.71-9.06-4.71-16.28s1.58-12.67,4.75-16.36c3.17-3.69,7.36-5.54,12.6-5.54,2.2,0,4.11.28,5.73.82,1.62.55,3.03,1.3,4.24,2.24,1.2.94,2.22,1.99,3.06,3.14h.47c-.05-.68-.14-1.69-.28-3.02-.13-1.33-.19-2.4-.19-3.18v-16.79h6.91v59.64h-5.57l-1.02-5.65h-.31c-.84,1.21-1.86,2.29-3.06,3.26-1.2.97-2.63,1.74-4.28,2.32-1.65.57-3.57.86-5.77.86ZM1079.26,1560.5c4.44,0,7.57-1.22,9.38-3.65,1.81-2.43,2.71-6.11,2.71-11.03v-1.26c0-5.23-.86-9.25-2.59-12.05-1.73-2.8-4.92-4.2-9.57-4.2-3.72,0-6.5,1.48-8.36,4.43-1.86,2.96-2.78,6.92-2.78,11.89s.93,8.92,2.78,11.69c1.86,2.77,4.67,4.16,8.44,4.16Z"/>
    <path class="cls-1" d="M1138.82,1520.32c0,1.78-.04,3.44-.12,4.98s-.17,2.76-.27,3.65h.39c1.2-1.78,2.85-3.27,4.94-4.47,2.09-1.2,4.79-1.81,8.09-1.81,5.23,0,9.43,1.82,12.6,5.46,3.16,3.64,4.75,9.06,4.75,16.28,0,4.81-.72,8.84-2.16,12.09-1.44,3.25-3.47,5.68-6.08,7.3-2.62,1.62-5.65,2.43-9.1,2.43s-5.99-.6-8.09-1.81c-2.09-1.2-3.74-2.64-4.94-4.32h-.55l-1.41,5.34h-4.94v-59.64h6.91v14.52ZM1150.67,1528.4c-2.98,0-5.33.56-7.06,1.69s-2.96,2.85-3.69,5.18c-.73,2.33-1.1,5.3-1.1,8.91v.32c0,5.18.85,9.14,2.55,11.89,1.7,2.75,4.85,4.12,9.46,4.12,3.77,0,6.58-1.39,8.43-4.16,1.86-2.77,2.79-6.77,2.79-12.01s-.93-9.26-2.79-11.93c-1.85-2.67-4.72-4-8.59-4Z"/>
    <path class="cls-1" d="M1172.02,1523.38h7.38l9.1,23.94c.52,1.41,1,2.77,1.45,4.08s.85,2.58,1.22,3.81c.37,1.23.65,2.42.86,3.57h.31c.31-1.31.81-3.02,1.49-5.14.68-2.12,1.39-4.25,2.12-6.4l8.55-23.86h7.46l-18.13,47.87c-.99,2.62-2.16,4.91-3.49,6.87-1.33,1.96-2.96,3.48-4.87,4.55-1.91,1.07-4.23,1.61-6.95,1.61-1.26,0-2.36-.07-3.3-.2-.94-.13-1.75-.27-2.43-.43v-5.5c.58.11,1.27.21,2.08.32.81.1,1.66.15,2.55.15,1.62,0,3.02-.3,4.2-.9,1.18-.6,2.18-1.47,3.02-2.59.83-1.12,1.54-2.45,2.12-3.96l2.2-5.57-16.95-42.22Z"/>
  </g>
  <g>
    <path class="cls-1" d="M544.98,1660.15c5.67-2.99,8.86-8.16,8.86-14.53,0-7.72-3.8-16.92-21.89-16.92h-48.99v65.76h53.04c13.68,0,21.53-6.69,21.53-18.36,0-7.76-4.32-13.23-12.55-15.95ZM497.03,1639.7h31.59c10.07,0,11.24,4.71,11.24,8.26,0,5.66-3.78,8.53-11.24,8.53h-31.59v-16.78ZM532.22,1683.46h-35.19v-17.24h35.19c4.92,0,10.79,1.48,10.79,8.53,0,5.94-3.43,8.71-10.79,8.71ZM738.41,1628.7l-35.57,65.76h-18.12l-35.57-65.76h15.25l29.47,54.72,29.38-54.72h15.16ZM643.64,1675.47c0,18.42-19.93,20.79-37.29,20.79-13.2,0-26.21-1.46-36.4-4.05v-11.65c1.6.53,3.37,1.02,5.3,1.47,8.59,2.02,20.21,3.22,31.1,3.22,18.97,0,22.85-3.77,22.85-9.43,0-6.67-4.46-7.64-23.55-8.89l-3.61-.27c-25.68-1.57-34.78-6.94-34.78-20.51,0-12.84,11.7-19.08,35.76-19.08,13.01,0,26.89,2.05,37.16,5.47v11.52c-8.64-4.28-25.97-5.99-38.15-5.99-16.93,0-20.33,3.09-20.33,8.08,0,6.31,4.13,8.06,22.11,9.34l3.78.27c22.35,1.6,36.04,3.41,36.04,19.7Z"/>
    <path class="cls-1" d="M848.01,1680.97l12.09-6.04c2.18,4.85,6.84,7.32,13.77,7.32,6.24,0,11-2.57,11-7.32,0-5.54-5.25-6.43-12.19-7.62-10.01-1.68-23.58-5.24-23.58-20.28,0-11.68,10.5-20.58,24.27-20.58,11,0,20.51,5.05,24.77,14.54l-12.09,6.04c-2.18-4.25-6.54-7.22-13.27-7.22-5.45,0-9.21,2.57-9.21,6.63,0,5.34,5.55,6.73,12.78,8.01,9.91,1.68,22.98,5.24,22.98,20.38,0,11.97-11.29,20.68-25.46,20.68-11.99,0-21.6-5.05-25.86-14.54Z"/>
    <path class="cls-1" d="M916.17,1680.97l12.09-6.04c2.18,4.85,6.84,7.32,13.77,7.32,6.24,0,11-2.57,11-7.32,0-5.54-5.25-6.43-12.19-7.62-10.01-1.68-23.58-5.24-23.58-20.28,0-11.68,10.5-20.58,24.27-20.58,11,0,20.51,5.05,24.77,14.54l-12.09,6.04c-2.18-4.25-6.54-7.22-13.27-7.22-5.45,0-9.21,2.57-9.21,6.63,0,5.34,5.55,6.73,12.78,8.01,9.91,1.68,22.98,5.24,22.98,20.38,0,11.97-11.29,20.68-25.46,20.68-11.99,0-21.6-5.05-25.86-14.54Z"/>
    <path class="cls-1" d="M983.33,1660.98c0-19.59,14.96-34.53,34.67-34.53s34.77,14.94,34.77,34.53-15.06,34.53-34.77,34.53-34.67-14.84-34.67-34.53ZM1037.82,1660.98c0-11.77-8.62-20.88-19.81-20.88s-19.81,9.1-19.81,20.88,8.72,20.88,19.81,20.88,19.81-9.1,19.81-20.88Z"/>
    <path class="cls-1" d="M1067.54,1660.98c0-19.29,15.16-34.63,34.57-34.63,11.59,0,22.69,6.13,27.64,16.52l-11.79,6.63c-3.27-5.74-8.42-9.4-16.45-9.4-11.1,0-19.12,8.81-19.12,20.88s7.93,20.88,19.12,20.88c8.02,0,13.37-3.66,16.45-9.4l11.79,6.63c-4.95,10.39-16.05,16.52-27.64,16.52-19.42,0-34.57-15.34-34.57-34.63Z"/>
    <path class="cls-1" d="M1162.44,1627.64v66.59h-14.46v-66.59h14.46Z"/>
    <path class="cls-1" d="M1314.75,1641h-19.62v53.23h-14.46v-53.23h-19.62v-13.36h53.69v13.36Z"/>
    <path class="cls-1" d="M1347.54,1627.64v66.59h-14.46v-66.59h14.46Z"/>
    <path class="cls-1" d="M1367.75,1660.98c0-19.59,14.96-34.53,34.67-34.53s34.77,14.94,34.77,34.53-15.06,34.53-34.77,34.53-34.67-14.84-34.67-34.53ZM1422.24,1660.98c0-11.77-8.62-20.88-19.81-20.88s-19.81,9.1-19.81,20.88,8.72,20.88,19.81,20.88,19.81-9.1,19.81-20.88Z"/>
    <path class="cls-1" d="M1456.71,1694.23v-57.49c0-6.63,4.85-10.49,10.3-10.49,4.36,0,7.83,1.58,10.01,5.24l26.35,45.12v-48.98h13.67v57.49c0,6.63-4.85,10.39-10.11,10.39-4.26,0-7.93-1.48-10.1-5.14l-26.35-45.41v49.27h-13.77Z"/>
    <polygon class="cls-1" points="1256.31 1694.55 1179.32 1694.55 1190.63 1675 1217.81 1627.96 1256.31 1694.55"/>
    <path class="cls-1" d="M835.41,1693.16l-31.24-62.47c-1.35-2.65-3.77-4.24-6.49-4.24s-5.14,1.59-6.48,4.24l-31.34,62.44-.54,1.07h15.39s.21-.43.21-.43l6.98-15.69h31.18l6.85,15.7.19.45h15.81l-.54-1.07ZM797.68,1646.65c.48,0,.88.28,1.13.77l9.17,18.1h-20.59l9.17-18.1c.25-.49.65-.77,1.12-.77Z"/>
  </g>
  <g>
    <g>
      <g>
        <path class="cls-1" d="M46.1,962.26c0-70.17,53.51-123.68,124.03-123.68s124.38,53.51,124.38,123.68-53.86,123.67-124.38,123.67-124.03-53.15-124.03-123.67ZM241,962.26c0-42.17-30.83-74.77-70.87-74.77s-70.87,32.6-70.87,74.77,31.18,74.77,70.87,74.77,70.87-32.6,70.87-74.77Z"/>
        <path class="cls-1" d="M356.16,1081.32v-238.49h83.99c67.69,0,109.15,31.54,109.15,86.82s-40.75,88.59-106.31,88.59h-35.08v62.72l-51.74.35ZM407.9,890.67v79.73h33.66c34.02,0,54.57-13.11,54.57-40.75,0-26.22-20.55-38.98-54.57-38.98h-33.66Z"/>
        <path class="cls-1" d="M650.99,1081.32c-32.96,0-45.71-17.01-45.71-44.3v-149.54c0-27.29,12.76-44.65,45.71-44.65h126.16v46.42h-120.13v49.61h112.69v46.42h-112.69v49.61h122.26v46.42h-128.28Z"/>
        <g>
          <polygon class="cls-1" points="878.87 1086.77 950.66 837.12 900.14 837.12 828.65 1086.77 878.87 1086.77"/>
          <polygon class="cls-1" points="1042.03 1086.77 1113.82 837.12 1063.33 837.12 991.81 1086.77 1042.03 1086.77"/>
          <polygon class="cls-1" points="970.32 879.66 945.09 967.42 969.65 1052.84 994.79 965.09 970.32 879.66"/>
        </g>
      </g>
      <g>
        <path class="cls-1" d="M1170.38,1081.32v-238.49h91.78c53.86,0,95.33,25.16,95.33,75.83,0,32.6-19.14,57.76-49.61,65.91,15.24,8.5,24.1,24.81,36.5,49.61l23.04,47.13h-55.99l-21.26-42.52c-10.99-21.97-21.26-33.67-48.19-33.67h-20.2l-.35,76.19h-51.03ZM1222.11,890.67l-.36,68.39h40.4c24.45,0,42.17-12.76,42.17-35.08s-18.07-33.31-41.46-33.31h-40.75Z"/>
        <path class="cls-1" d="M1426.93,975.37v-132.53h51.74v131.47c0,41.46,17.01,61.66,52.09,61.66s52.09-20.2,52.09-61.66v-131.47h51.74v132.53c0,68.75-32.96,109.85-103.83,109.85s-103.83-41.11-103.83-109.85Z"/>
        <g>
          <polygon class="cls-1" points="1718.96 1086.77 1790.74 837.12 1740.22 837.12 1668.74 1086.77 1718.96 1086.77"/>
          <polygon class="cls-1" points="1882.12 1086.77 1953.9 837.12 1903.42 837.12 1831.9 1086.77 1882.12 1086.77"/>
          <polygon class="cls-1" points="1810.41 879.66 1785.17 967.42 1809.73 1052.84 1834.87 965.09 1810.41 879.66"/>
        </g>
      </g>
    </g>
    <g>
      <polygon class="cls-1" points="970.55 405.36 867.69 763.08 795.73 763.08 898.16 405.36 970.55 405.36"/>
      <polygon class="cls-1" points="1204.34 405.36 1101.48 763.08 1029.52 763.08 1132 405.36 1204.34 405.36"/>
    </g>
    <!-- ASIA text removed for global edition -->
  </g>
</svg>